# xmcd
#
# Track frame offsets: 
#        150
#        13099
#        30567
#        46494
#        64747
#        81324
#        104114
#        121972
#        145062
#        164242
#
# Disc length: 2466 seconds
#
# Revision: 7
# Processed by: cddbd v1.5.2PL0 Copyright (c) Steve Scherf et al.
# Submitted via: ExactAudioCopyFreeDBPlugin 1.0
#
DISCID=8f09a00a
DTITLE=Alanis Morissette - So-Called Chaos
DYEAR=2004
DGENRE=Rock
TTITLE0=Eight Easy Steps
TTITLE1=Out Is Through
TTITLE2=Excuses
TTITLE3=Doth I Protest Too Much
TTITLE4=Knees Of My Bees
TTITLE5=So-Called Chaos
TTITLE6=Not All Me
TTITLE7=This Grudge
TTITLE8=Spineless
TTITLE9=Everything
EXTD=YEAR: 2004
EXTT0=
EXTT1=
EXTT2=
EXTT3=
EXTT4=
EXTT5=
EXTT6=
EXTT7=
EXTT8=
EXTT9=
PLAYORDER=
